#N canvas 103 47 1346 583 10;
#X obj 13 75 comport 4 57600;
#X msg 13 13 open 4;
#X msg 27 44 close;
#N canvas 416 142 341 237 debytemask 0;
#X obj 14 120 & 1;
#X obj 87 120 & 2;
#X obj 137 120 & 4;
#X obj 187 120 & 8;
#X obj 14 180 outlet;
#X obj 87 181 outlet;
#X obj 137 181 outlet;
#X obj 187 181 outlet;
#X obj 87 141 change;
#X obj 137 141 change;
#X obj 187 141 change;
#X obj 187 161 == 8;
#X obj 137 161 == 4;
#X obj 87 161 == 2;
#X obj 14 12 inlet;
#X obj 14 56 trigger float float float float;
#X obj 14 139 change -1;
#X connect 0 0 16 0;
#X connect 1 0 8 0;
#X connect 2 0 9 0;
#X connect 3 0 10 0;
#X connect 8 0 13 0;
#X connect 9 0 12 0;
#X connect 10 0 11 0;
#X connect 11 0 7 0;
#X connect 12 0 6 0;
#X connect 13 0 5 0;
#X connect 14 0 15 0;
#X connect 15 0 0 0;
#X connect 15 1 1 0;
#X connect 15 2 2 0;
#X connect 15 3 3 0;
#X connect 16 0 4 0;
#X restore 13 101 pd debytemask;
#X obj 165 181 t f f;
#X obj 208 182 t f f;
#X obj 165 212 sel 0;
#X obj 165 239 f;
#X obj 208 213 sel 0;
#X obj 208 238 f;
#X obj 165 265 sel 1;
#X obj 208 265 sel 1;
#X msg 208 289 label <<;
#X msg 165 318 label >>;
#X obj 165 407 s schranke1;
#X obj 151 460 cnv 15 100 60 empty schranke1 >> 20 12 1 200 -262144
-33289 0;
#X msg 280 377 color 0 \$1;
#X obj 280 286 t b b;
#X msg 280 349 12;
#X msg 312 307 13;
#X obj 280 328 del 500;
#X obj 796 181 t f f;
#X obj 839 182 t f f;
#X obj 796 212 sel 0;
#X obj 796 239 f;
#X obj 839 213 sel 0;
#X obj 839 238 f;
#X obj 796 265 sel 1;
#X obj 839 265 sel 1;
#X msg 839 289 label <<;
#X msg 796 318 label >>;
#X obj 789 452 cnv 15 100 60 empty schranke2 << 20 12 1 200 -262144
-33289 0;
#X msg 911 377 color 0 \$1;
#X obj 911 286 t b b;
#X msg 911 349 12;
#X msg 943 307 13;
#X obj 911 328 del 500;
#X obj 796 407 s schranke2;
#X obj 368 57 tgl 400 0 empty empty empty 17 7 0 10 -262144 -258113
-1 1 1;
#X msg 516 309 1;
#X msg 485 309 0;
#X obj 18 181 tgl 15 0 empty empty empty 17 7 0 10 -262144 -1 -1 0
1;
#X obj 43 179 tgl 15 0 empty empty empty 17 7 0 10 -262144 -1 -1 0
1;
#X obj 71 181 tgl 15 0 empty empty empty 17 7 0 10 -262144 -1 -1 0
1;
#X obj 96 179 tgl 15 0 empty empty empty 17 7 0 10 -262144 -1 -1 0
1;
#X floatatom 72 229 5 0 0 0 - - -;
#X connect 0 0 3 0;
#X connect 0 0 45 0;
#X connect 1 0 0 0;
#X connect 2 0 0 0;
#X connect 3 0 21 0;
#X connect 3 0 41 0;
#X connect 3 1 22 0;
#X connect 3 1 42 0;
#X connect 3 2 4 0;
#X connect 3 2 43 0;
#X connect 3 3 5 0;
#X connect 3 3 44 0;
#X connect 4 0 6 0;
#X connect 4 1 9 1;
#X connect 5 0 8 0;
#X connect 5 1 7 1;
#X connect 6 0 7 0;
#X connect 7 0 10 0;
#X connect 8 0 9 0;
#X connect 9 0 11 0;
#X connect 10 0 13 0;
#X connect 10 0 17 0;
#X connect 10 0 39 0;
#X connect 11 0 12 0;
#X connect 11 0 17 0;
#X connect 11 0 40 0;
#X connect 12 0 14 0;
#X connect 13 0 14 0;
#X connect 16 0 14 0;
#X connect 17 0 20 0;
#X connect 17 1 19 0;
#X connect 18 0 16 0;
#X connect 19 0 16 0;
#X connect 20 0 18 0;
#X connect 21 0 23 0;
#X connect 21 1 26 1;
#X connect 22 0 25 0;
#X connect 22 1 24 1;
#X connect 23 0 24 0;
#X connect 24 0 27 0;
#X connect 25 0 26 0;
#X connect 26 0 28 0;
#X connect 27 0 30 0;
#X connect 27 0 33 0;
#X connect 27 0 40 0;
#X connect 28 0 29 0;
#X connect 28 0 33 0;
#X connect 28 0 39 0;
#X connect 29 0 37 0;
#X connect 30 0 37 0;
#X connect 32 0 37 0;
#X connect 33 0 36 0;
#X connect 33 1 35 0;
#X connect 34 0 32 0;
#X connect 35 0 32 0;
#X connect 36 0 34 0;
#X connect 39 0 38 0;
#X connect 40 0 38 0;
