#N canvas 257 134 1336 680 10;
#X obj 13 75 comport 4 57600;
#X msg 13 13 open 4;
#X msg 27 44 close;
#N canvas 416 142 477 213 debytemask 0;
#X obj 57 88 change;
#X obj 109 88 change;
#X obj 159 88 change;
#X obj 5 7 inlet;
#X obj 261 88 change;
#X obj 311 88 change;
#X obj 361 88 change;
#X obj 209 88 change;
#X obj 5 30 t f f f f f f f f;
#X obj 5 149 pack f f f f f f f f;
#X obj 5 171 outlet;
#X obj 5 87 change;
#X obj 5 66 & 128;
#X obj 5 107 == 128;
#X obj 57 67 & 64;
#X obj 57 108 == 64;
#X obj 109 68 & 32;
#X obj 109 108 == 32;
#X obj 159 67 & 16;
#X obj 159 108 == 16;
#X obj 209 68 & 8;
#X obj 209 108 == 8;
#X obj 261 67 & 4;
#X obj 261 108 == 4;
#X obj 311 67 & 2;
#X obj 311 108 == 2;
#X obj 361 67 & 1;
#X obj 361 108 == 1;
#X connect 0 0 15 0;
#X connect 1 0 17 0;
#X connect 2 0 19 0;
#X connect 3 0 8 0;
#X connect 4 0 23 0;
#X connect 5 0 25 0;
#X connect 6 0 27 0;
#X connect 7 0 21 0;
#X connect 8 0 12 0;
#X connect 8 1 14 0;
#X connect 8 2 16 0;
#X connect 8 3 18 0;
#X connect 8 4 20 0;
#X connect 8 5 22 0;
#X connect 8 6 24 0;
#X connect 8 7 26 0;
#X connect 9 0 10 0;
#X connect 11 0 13 0;
#X connect 12 0 11 0;
#X connect 13 0 9 0;
#X connect 14 0 0 0;
#X connect 15 0 9 1;
#X connect 16 0 1 0;
#X connect 17 0 9 2;
#X connect 18 0 2 0;
#X connect 19 0 9 3;
#X connect 20 0 7 0;
#X connect 21 0 9 4;
#X connect 22 0 4 0;
#X connect 23 0 9 5;
#X connect 24 0 5 0;
#X connect 25 0 9 6;
#X connect 26 0 6 0;
#X connect 27 0 9 7;
#X restore 13 101 pd debytemask;
#X obj 11 164 unpack f f f f f f f;
#X obj 11 129 route 1 0;
#X obj 182 274 << 7;
#X obj 182 323 +;
#X obj 208 299 t b a;
#N canvas 722 159 195 302 bytemask_7 0;
#X obj 21 271 outlet;
#X obj 21 18 inlet;
#X obj 80 201 << 1;
#X obj 80 181 << 2;
#X obj 76 160 << 3;
#X obj 77 137 << 4;
#X obj 60 109 << 5;
#X obj 21 86 << 6;
#X obj 21 141 +;
#X obj 21 163 +;
#X obj 21 184 +;
#X obj 21 204 +;
#X obj 21 225 +;
#X obj 21 247 +;
#X obj 21 43 unpack f f f f f f f;
#X connect 1 0 14 0;
#X connect 2 0 12 1;
#X connect 3 0 11 1;
#X connect 4 0 10 1;
#X connect 5 0 9 1;
#X connect 6 0 8 1;
#X connect 7 0 8 0;
#X connect 8 0 9 0;
#X connect 9 0 10 0;
#X connect 10 0 11 0;
#X connect 11 0 12 0;
#X connect 12 0 13 0;
#X connect 13 0 0 0;
#X connect 14 0 7 0;
#X connect 14 1 6 0;
#X connect 14 2 5 0;
#X connect 14 3 4 0;
#X connect 14 4 3 0;
#X connect 14 5 2 0;
#X connect 14 6 13 1;
#X restore 210 171 pd bytemask_7;
#N canvas 722 159 154 208 bytemask_3 0;
#X obj 21 166 outlet;
#X obj 21 18 inlet;
#X obj 58 70 << 1;
#X obj 21 69 << 2;
#X obj 21 120 +;
#X obj 21 142 +;
#X obj 21 43 unpack f f f;
#X connect 1 0 6 0;
#X connect 2 0 4 1;
#X connect 3 0 4 0;
#X connect 4 0 5 0;
#X connect 5 0 0 0;
#X connect 6 0 3 0;
#X connect 6 1 2 0;
#X connect 6 2 5 1;
#X restore 182 252 pd bytemask_3;
#X obj 182 230 pack f f f;
#X msg 182 367 analog \$1;
#X obj 11 419 s SENSOR;
#X msg 11 297 lb 1 a \$1;
#X msg 33 275 lb 1 b \$1;
#X msg 56 255 lb 2 a \$1;
#X msg 79 233 lb 2 b \$1;
#X obj 334 33 r SENSOR;
#X obj 334 87 print;
#X obj 182 345 change;
#X obj 11 259 change;
#X obj 33 238 change;
#X obj 56 211 change;
#X obj 79 192 change;
#X obj 963 270 cnv 15 100 60 empty schranke2 << 20 12 1 200 -262144
-33289 0;
#X obj 554 264 tgl 400 0 empty drin empty 17 7 0 10 -262144 -258113
-1 1 1;
#X obj 306 300 cnv 15 100 60 empty schranke1 >> 20 12 1 200 -262144
-33289 0;
#N canvas 622 90 614 456 guts 0;
#X obj 43 156 t f f;
#X obj 86 157 t f f;
#X obj 43 187 sel 0;
#X obj 86 188 sel 0;
#X obj 86 213 f;
#X obj 43 240 sel 1;
#X obj 86 240 sel 1;
#X msg 86 264 label <<;
#X msg 43 293 label >>;
#X obj 43 432 s schranke1;
#X msg 116 394 color 0 \$1;
#X obj 116 303 t b b;
#X msg 116 366 12;
#X msg 148 324 13;
#X obj 116 345 del 500;
#X obj 305 160 t f f;
#X obj 348 161 t f f;
#X obj 305 191 sel 0;
#X obj 305 218 f;
#X obj 348 192 sel 0;
#X obj 348 217 f;
#X obj 305 244 sel 1;
#X obj 348 244 sel 1;
#X msg 348 268 label <<;
#X msg 305 297 label >>;
#X msg 420 356 color 0 \$1;
#X obj 420 265 t b b;
#X msg 420 328 12;
#X msg 452 286 13;
#X obj 420 307 del 500;
#X obj 305 386 s schranke2;
#X msg 255 270 1;
#X msg 223 270 0;
#X obj 43 214 f;
#X obj 244 300 s drin;
#X obj 180 6 r SENSOR;
#X obj 181 28 route lb;
#X obj 134 68 route 2 1;
#X obj 308 129 route b a;
#X obj 63 117 route b a;
#X connect 0 0 2 0;
#X connect 0 1 4 1;
#X connect 1 0 3 0;
#X connect 1 1 33 1;
#X connect 2 0 33 0;
#X connect 3 0 4 0;
#X connect 4 0 6 0;
#X connect 5 0 8 0;
#X connect 5 0 11 0;
#X connect 5 0 31 0;
#X connect 6 0 7 0;
#X connect 6 0 11 0;
#X connect 6 0 32 0;
#X connect 7 0 9 0;
#X connect 8 0 9 0;
#X connect 10 0 9 0;
#X connect 11 0 14 0;
#X connect 11 1 13 0;
#X connect 12 0 10 0;
#X connect 13 0 10 0;
#X connect 14 0 12 0;
#X connect 15 0 17 0;
#X connect 15 1 20 1;
#X connect 16 0 19 0;
#X connect 16 1 18 1;
#X connect 17 0 18 0;
#X connect 18 0 21 0;
#X connect 19 0 20 0;
#X connect 20 0 22 0;
#X connect 21 0 24 0;
#X connect 21 0 26 0;
#X connect 21 0 32 0;
#X connect 22 0 23 0;
#X connect 22 0 26 0;
#X connect 22 0 31 0;
#X connect 23 0 30 0;
#X connect 24 0 30 0;
#X connect 25 0 30 0;
#X connect 26 0 29 0;
#X connect 26 1 28 0;
#X connect 27 0 25 0;
#X connect 28 0 25 0;
#X connect 29 0 27 0;
#X connect 31 0 34 0;
#X connect 32 0 34 0;
#X connect 33 0 5 0;
#X connect 35 0 36 0;
#X connect 36 0 37 0;
#X connect 37 0 39 0;
#X connect 37 1 38 0;
#X connect 38 0 15 0;
#X connect 38 1 16 0;
#X connect 39 0 0 0;
#X connect 39 1 1 0;
#X restore 598 148 pd guts;
#X connect 0 0 3 0;
#X connect 1 0 0 0;
#X connect 2 0 0 0;
#X connect 3 0 5 0;
#X connect 4 0 21 0;
#X connect 4 1 22 0;
#X connect 4 2 23 0;
#X connect 4 3 24 0;
#X connect 4 4 11 0;
#X connect 4 5 11 1;
#X connect 4 6 11 2;
#X connect 5 0 4 0;
#X connect 5 1 9 0;
#X connect 6 0 7 0;
#X connect 7 0 20 0;
#X connect 8 0 7 0;
#X connect 8 1 7 1;
#X connect 9 0 8 0;
#X connect 10 0 6 0;
#X connect 11 0 10 0;
#X connect 12 0 13 0;
#X connect 14 0 13 0;
#X connect 15 0 13 0;
#X connect 16 0 13 0;
#X connect 17 0 13 0;
#X connect 18 0 19 0;
#X connect 20 0 12 0;
#X connect 21 0 14 0;
#X connect 22 0 15 0;
#X connect 23 0 16 0;
#X connect 24 0 17 0;
